<mxfile host="app.diagrams.net" modified="2023-05-01T23:44:24.666Z" agent="Mozilla/5.0 (Windows NT 10.0; Win64; x64) AppleWebKit/537.36 (KHTML, like Gecko) Chrome/112.0.0.0 Safari/537.36" etag="rkT797g5q2fjLNt-LlvJ" version="21.2.3" type="github">
  <diagram name="페이지-1" id="qCDUbg22PX8j7UsJf7zN">
    <mxGraphModel dx="1013" dy="438" grid="1" gridSize="10" guides="1" tooltips="1" connect="1" arrows="1" fold="1" page="1" pageScale="1" pageWidth="827" pageHeight="1169" math="0" shadow="0">
      <root>
        <mxCell id="0" />
        <mxCell id="1" parent="0" />
        <mxCell id="PgONTNGa4zTvGpCb7QzQ-1" value="&lt;b style=&quot;font-size: 16px;&quot;&gt;NFR of Configurability&lt;/b&gt;" style="shape=note;whiteSpace=wrap;html=1;backgroundOutline=1;darkOpacity=0.05;size=11;fontSize=16;" vertex="1" parent="1">
          <mxGeometry x="360" y="190" width="200" height="40" as="geometry" />
        </mxCell>
      </root>
    </mxGraphModel>
  </diagram>
</mxfile>
